<svg xmlns="http://www.w3.org/2000/svg" viewBox="0 0 640 360">
<style xmlns="http://www.w3.org/2000/svg" type="text/css">
	.st0{display:none;}
	.st1{display:inline;}
	.st2{fill:#EEF2F8;}
	.st3{fill:#8B4B9F;}
	.st4{fill:#500B75;}
	.st5{fill:#FD6E66;}
	.st6{fill:#FB6518;}
</style>

  <defs>
    <linearGradient id="instapayBg" x1="0" x2="1" y1="0" y2="1">
      <stop offset="0%" stop-color="#7f5cb0"/>
      <stop offset="55%" stop-color="#491f88"/>
      <stop offset="100%" stop-color="#230f4e"/>
    </linearGradient>
  </defs>
  <rect width="640" height="360" rx="36" fill="url(#instapayBg)"/>
  <g transform="translate(36 72) scale(0.36)">
    <path d="M143.4129,0.0354 C163.3309,0.0707 183.2488,0.1056 203.1668,0.0179 C224.2618,36.7272 245.1636,73.5773 266.4164,110.1989 C224.2090,147.2422 181.9140,184.5489 139.7420,221.6624 C137.7046,223.4891 136.4574,223.8755 133.6827,223.8053 C114.8710,223.7700 96.1121,223.7879 77.3009,223.7879 C120.2457,185.8663 163.3662,148.0149 206.3637,110.1287 C185.3743,73.4543 164.1041,36.8676 143.4129,0.0354 Z" fill="#f48271"/>
    <path d="M289.0215,0.0000 C310.0284,36.7451 331.0004,73.5245 352.2004,110.1640 C334.2322,126.0770 316.1235,141.8322 298.1727,157.7984 C275.2161,177.8921 252.3471,198.0735 229.4607,218.2723 C226.3171,220.7139 224.1214,224.2972 219.7126,223.8053 C200.8307,223.7525 181.9493,223.8402 163.0854,223.7351 C206.1880,185.9191 249.1681,147.9447 292.2533,110.1113 C270.9830,73.6475 250.3974,36.7974 229.0744,0.3689 C249.0277,-0.3864 269.0687,0.3341 289.0215,0.0000 Z" fill="#ef6823"/>
    <path d="M73.5598,0.7379 C92.3884,0.5447 111.2354,0.7204 130.0640,0.6677 C123.7762,20.1291 117.3475,39.5377 110.9541,58.9638 C92.0374,58.9110 73.1207,59.0166 54.2039,58.8936 C60.8781,39.5905 66.7975,20.0061 73.5598,0.7379 Z" fill="#512873"/>
    <path d="M387.6101,0.6851 C423.5292,0.5975 459.5011,0.7204 495.4202,0.6323 C506.6440,0.3162 517.9904,1.7217 528.8100,4.6901 C545.0396,9.4499 559.0034,20.7614 565.2210,36.7451 C571.5969,52.9394 568.6459,71.6803 562.9023,87.6466 C546.6558,134.7542 497.3873,167.8801 447.9964,168.0384 C415.8010,168.1789 383.5882,168.0733 351.3749,168.0384 C345.3151,186.6216 339.1851,205.1694 333.1433,223.7525 C314.1912,223.8227 295.2570,223.7525 276.3050,223.7700 C283.8226,201.8500 290.6551,179.7010 298.1727,157.7984 C316.1235,141.8322 334.2322,126.0770 352.2004,110.1640 C391.7202,110.1815 431.3456,110.2342 470.8654,110.1287 C486.6559,110.0411 501.8489,99.8712 506.9602,84.7484 C509.2261,78.0911 509.9460,71.0306 504.9228,65.4099 C499.5656,59.5259 492.3641,59.0166 484.8819,58.9284 C433.4003,59.0340 381.9193,58.8408 330.4383,59.0166 C349.5307,39.6428 368.2369,19.7602 387.6101,0.6851 Z" fill="#7d569e"/>
    <path d="M103.3663,82.5173 C87.6814,129.5199 72.3828,176.6624 56.9264,223.7351 C37.9743,223.7879 19.0222,223.8402 0.0706,223.7172 C15.8606,176.7853 30.9133,129.5547 46.6161,82.5880 C65.5329,82.3769 84.4496,82.5353 103.3663,82.5173 Z" fill="#512873"/>
  </g>
  <g transform="translate(-36 20) scale(0.36)">
    <g xmlns="http://www.w3.org/2000/svg" id="Layer_1-2">
      <g>
        <path d="M579.9,517.9C579.9,517.9,579.8,517.8,579.9,517.9c-0.1-0.1-0.1-0.1-0.1-0.1C579.8,517.8,579.9,517.9,579.9,517.9z"/>
        <g>
          <path class="st3" d="M684.6,485.6c-4.8,19.9-23.9,35.4-44.5,35.7c-12,0.2-24,0.1-36,0.1h-2.9c-2.4,7.3-4.8,14.5-7.2,21.7h-21.7     c0.2-0.8,0.3-1.4,0.5-2c1.9-6,11-30.8,15-42.2c4.3,0,14.7,0.1,15.1,0.1c14.9,0,29.8,0,44.6,0c7.1,0,12.9-4.7,14.4-11.4     c1-4.4-1.4-7.8-5.8-8.3c-1.2-0.1-2.3-0.1-3.5-0.1c-18.8,0-37.6,0-56.3,0h-3.2c7.5-7.7,14.6-15,21.9-22.5h2.2     c13.9,0,27.9-0.1,41.8,0.1c3.5,0,7,0.3,10.4,1.2C681.9,461.2,687.9,472.2,684.6,485.6L684.6,485.6z"/>
          <path class="st3" d="M734.3,456.5c2.8,0.8,5.2,3,6.7,5.4c1.8,3,2.5,6.3,3.4,9.7c1,3.7,1.8,7.5,2.8,11.3c1.8,7.5,3.7,15,5.6,22.5     c3,12,6,24,8.9,36c0.1,0.4,0.2,0.9,0.3,1.6h-82.9c7-7.6,13.7-14.9,20.5-22.3h29.5c-2.7-10.3-5.3-20.4-8.1-31     c-16.6,18-33,35.7-49.4,53.4h-27.1c0.9-1,1.5-1.8,2.2-2.5c21.8-23.8,43.7-47.5,65.4-71.3c2.9-3.2,6-6.2,9.5-8.7     c3.1-2.2,6.7-4.5,10.7-4.5C732.9,456.2,733.6,456.3,734.3,456.5L734.3,456.5z"/>
          <path class="st3" d="M752,456.8h28c4.9,11.6,9.8,23.1,14.9,35c12.2-11.8,24.1-23.4,36.1-35h27.3c0.2,0.2,0.4,0.5,0.6,0.7     c-0.7,0.5-1.6,0.9-2.2,1.5c-19,18-38,36-56.9,54c-1,1-1.9,2.3-2.3,3.6c-3,8.8-5.8,17.6-8.7,26.4h-21.9c0.3-1,0.5-1.8,0.8-2.7     c2.6-7.9,5.1-15.8,7.8-23.7c0.6-1.7,0.5-3.1-0.2-4.7c-7.5-17.6-14.9-35.2-22.4-52.9C752.6,458.5,752.4,457.8,752,456.8L752,456.8     z"/>
        </g>
        <g>
          <path class="st4" d="M511.3,515.4c0.7,2.8,5.2,18.9,7.5,27c-0.2,0.2-0.5,0.4-0.7,0.6h-83c7-7.6,13.6-14.9,20.4-22.3h29.6     c-2.7-10.4-5.4-20.5-8.2-31.1c-16.7,18-33.1,35.8-49.4,53.4h-26.9c0.5-0.7,0.8-1.2,1.2-1.6c23.2-25.3,46.4-50.7,69.7-75.9     c2.2-2.4,4.7-4.4,7.4-6c4.4-2.6,10-4.9,14.7-1.5c3.7,2.6,5.3,7.1,6.2,11.3c1.2,5.5,2.7,10.9,4,16.4     C506.4,495.6,508.9,505.5,511.3,515.4z"/>
          <path class="st4" d="M246.7,543.8c-4.3-1.3-6.9-4.3-9.3-8c-8-12.6-16.3-25.1-24.4-37.6c-0.5-0.7-1-1.4-1.7-2.4     c-5.2,16-10.4,31.6-15.5,47.3H174c0.2-0.7,0.3-1.4,0.5-2c7.9-24.2,15.8-48.5,23.9-72.7c0.9-2.8,2.6-5.6,4.6-7.7     c5.6-6,14-5.1,18.5,1.8c8.6,13.1,17.1,26.2,25.6,39.3c0.4,0.7,0.9,1.4,1.6,2.4c5.3-16.1,10.4-31.7,15.6-47.4h21.8     c-0.2,0.9-0.4,1.7-0.7,2.5c-7.9,24.1-15.8,48.2-23.7,72.2c-0.2,0.7-0.5,1.5-0.8,2.2c-1.8,4.7-4.7,8.4-9.6,10.1H246.7L246.7,543.8     z"/>
          <path class="st4" d="M141,542.4c2.2-6.4,4.4-12.7,6.5-19.1c7.1-21.5,14.1-43,21.1-64.5c0.2-0.6,0.4-1.2,0.7-1.9h21.9     c-9.5,28.9-18.9,57.6-28.3,86.5H141C141,543,141,542.7,141,542.4z"/>
          <path class="st4" d="M382.9,456.7c-7.5,7.8-14.5,15.1-21.5,22.5c-5.7,0-11.3,0-16.9,0c-11,0-22,0-33,0c-3.9,0-5.6,2-5.3,6.2     c1.1,0.2,2.4,0.6,3.7,0.6c11.3,0,22.6-0.1,33.9,0.1c3.7,0.1,7.5,0.4,11,1.5c10.2,3.1,14.8,12.4,12.2,23.7     c-4.2,18.3-20.8,31.7-40,31.9c-21.2,0.2-42.4,0.1-63.6,0.1c-0.4,0-0.7-0.1-1.8-0.1c7.3-7.6,14.3-14.9,21.3-22.2     c3.6,0,7.3,0,10.9,0c13,0,26,0.1,39-0.1c2.9,0,5.8-1,8.5-2c1.4-0.5,2.7-1.9,3.5-3.3c1.7-2.7,0.8-5.1-2.1-6.2     c-1.8-0.6-3.8-0.9-5.7-0.9c-11.7-0.1-23.4,0-35.1-0.1c-2.9,0-5.8-0.3-8.5-1c-10.1-2.5-15.2-10.9-12.9-21.1     c3.5-15.9,18.2-28.6,34.6-29.3c9.6-0.4,19.3-0.2,29-0.2c11.8,0,23.7,0,35.5,0C380.5,456.7,381.4,456.7,382.9,456.7L382.9,456.7z"/>
          <path class="st4" d="M396.4,543.1h-22c7-21.4,13.9-42.5,20.9-63.9h-29.2c7.4-7.8,14.4-15,21.4-22.4H460     c-7.3,7.6-14.4,14.9-21.5,22.3h-21.2C410.4,500.5,403.4,521.7,396.4,543.1L396.4,543.1z"/>
        </g>
        <g>
          <path class="st5" d="M568.7,499.3c-0.6,0.4-1.2,0.8-1.8,1.3c-15.4,13.5-32.9,29-48.4,42.6c-7,0-16.5,0-23.1,0l49.9-44.2     c-0.6-1.1-1.1-1.9-1.5-2.7c-7.6-13.3-15.2-26.6-22.7-39.9h23.4c0.3,0.8,0.6,1.6,1,2.3c7.2,12.6,14.5,25.3,21.7,37.9     C567.6,497.3,568,498,568.7,499.3L568.7,499.3z"/>
          <path class="st6" d="M601.8,498.7l-48.9,43.7l-0.8,0.7c-7,0.1-16.2,0-22.9-0.5c16.5-14.5,33-29.1,49.5-43.7     c-8.2-14.3-16.3-28.5-24.4-42.6h23.4c0.3,0.6,0.5,1.3,0.9,1.9c7.4,13,14.5,25.3,21.8,38.3C600.8,497.1,600.4,496.6,601.8,498.7z"/>
        </g>
      </g>
    </g>
  </g>
  <text x="292" y="182" fill="#ffffff" font-size="52" font-family="Arial, sans-serif" font-weight="700">Insta Pay</text>
  <!-- <text x="292" y="182" fill="#f7d9ff" font-size="46" font-family="Arial, sans-serif" font-weight="700"></text> -->
  <rect x="292" y="220" width="250" height="16" rx="8" fill="rgba(255,255,255,0.88)"/>
  <rect x="292" y="252" width="182" height="16" rx="8" fill="rgba(247,217,255,0.52)"/>
  <text x="42" y="316" fill="#f7d9ff" font-size="22" font-family="Arial, sans-serif">Instant payment card</text>
</svg>
