<svg xmlns="http://www.w3.org/2000/svg" viewBox="0 0 640 360">
  <rect width="640" height="360" rx="36" fill="#121a23"/>
  <g transform="translate(42 46) scale(0.5)">
  <g transform="rotate(270 250 50)">
    <g transform="translate(15 35)">
      <path d="M16 140 126 28c14-14 38-14 52 0s14 38 0 52l-110 112c-14 14-38 14-52 0s-14-38 0-52z" fill="#f7f7f7"/>
    </g>
    <path d="M60 28h124c20 0 36 16 36 36v124c0 20-16 36-36 36s-36-16-36-36V102H60c-20 0-36-16-36-36s16-38 36-38z" fill="#f7f7f7"/>
  </g>
    <g transform="rotate(180 249 126)">
          <path d="M328 28h108c20 0 36 16 36 36s-16 38-36 38h-22l68 68c14 14 14 38 0 52s-38 14-52 0l-72-72v40c0 20-16 36-36 36s-36-16-36-36V64c0-20 16-36 36-36z" fill="#ff8c1a" transform="rotate(90deg)"/>
    </g>
  </g>
  <text x="110" y="230" fill="#ffe2c4" font-size="52" font-family="Arial, sans-serif" font-weight="700">اورنج </text>
  <text x="110" y="280" fill="#fff" font-size="52" font-family="Arial, sans-serif" font-weight="700"> كاش</text>
  <text x="292" y="122" fill="#ff9b2f" font-size="52" font-family="Arial, sans-serif" font-weight="700">Orange</text>
  <text x="292" y="182" fill="#ffe2c4" font-size="46" font-family="Arial, sans-serif" font-weight="700">Cash</text>
  <rect x="292" y="220" width="250" height="16" rx="8" fill="rgba(255,140,26,0.9)"/>
  <rect x="292" y="252" width="182" height="16" rx="8" fill="rgba(255,140,26,0.45)"/>
  <text x="42" y="316" fill="#ffcca1" font-size="22" font-family="Arial, sans-serif">Wallet payment card</text>
</svg>
